<?xml version="1.0" standalone="no"?>
<!DOCTYPE svg PUBLIC "-//W3C//DTD SVG 20010904//EN"
 "http://www.w3.org/TR/2001/REC-SVG-20010904/DTD/svg10.dtd">
<svg version="1.0" xmlns="http://www.w3.org/2000/svg"
 width="83.000000pt" height="83.000000pt" viewBox="0 0 83.000000 83.000000"
 preserveAspectRatio="xMidYMid meet">
<metadata>
Created by potrace 1.11, written by Peter Selinger 2001-2013
</metadata>
<g transform="translate(0.000000,83.000000) scale(0.100000,-0.100000)"
fill="#000000" stroke="none">
<path d="M220 608 c1 -24 1 -46 1 -51 -1 -4 -17 0 -37 8 -47 20 -54 19 -54 -5
0 -19 7 -24 68 -45 10 -4 6 -14 -12 -38 -14 -19 -26 -39 -26 -44 0 -9 21 -23
34 -23 1 0 10 16 20 35 11 19 23 35 27 35 4 0 17 -16 29 -35 24 -38 32 -42 49
-22 8 10 5 22 -14 47 -13 18 -22 36 -20 40 3 4 21 11 40 14 24 5 35 12 35 25
0 28 -9 30 -52 15 -22 -8 -42 -14 -43 -14 -1 0 0 23 3 50 4 49 4 50 -22 50
-26 0 -27 -3 -26 -42z"/>
<path d="M450 502 c-67 -67 -64 -180 5 -241 30 -26 44 -31 86 -31 67 0 106 22
130 73 24 53 24 111 0 164 -24 51 -63 73 -132 73 -46 0 -55 -4 -89 -38z m154
-27 c65 -70 28 -205 -56 -205 -59 1 -88 40 -88 119 0 96 87 148 144 86z"/>
</g>
</svg>
